<?xml version="1.0" encoding="UTF-8" standalone="no"?>
<!DOCTYPE svg PUBLIC "-//W3C//DTD SVG 1.1//EN" "http://www.w3.org/Graphics/SVG/1.1/DTD/svg11.dtd">
<svg xmlns="http://www.w3.org/2000/svg" version="1.1" viewBox="0.00 0.00 512.00 512.00">
<path fill="#000000" d="
  M 274.41 256.42
  C 274.59 256.13 274.59 255.77 274.41 255.49
  C 226.60 182.19 178.53 108.52 130.22 34.48
  C 128.29 31.53 130.29 28.00 133.78 28.00
  C 162.36 27.99 190.55 28.00 218.36 28.01
  C 219.76 28.01 221.07 28.68 221.88 29.82
  L 381.80 253.71
  C 382.56 254.78 382.60 256.20 381.90 257.31
  C 379.82 260.60 377.64 263.87 375.37 267.14
  C 326.14 337.83 272.36 411.37 221.43 482.54
  C 220.78 483.45 219.73 483.99 218.61 483.99
  C 189.65 484.01 161.27 484.01 133.46 483.99
  C 132.47 483.99 131.61 483.65 130.88 482.97
  C 128.41 480.65 129.79 478.37 131.29 476.07
  C 179.04 402.81 226.75 329.59 274.41 256.42
  Z
  M 141.02 36.18
  L 282.75 253.61
  C 283.69 255.04 283.69 256.90 282.75 258.33
  L 141.10 475.63
  C 141.00 475.79 141.11 476.00 141.30 476.00
  L 216.04 476.00
  C 216.30 476.00 216.55 475.87 216.70 475.66
  L 373.40 256.25
  C 373.52 256.08 373.52 255.86 373.40 255.69
  L 216.74 36.35
  C 216.57 36.12 216.35 36.00 216.06 36.00
  L 141.11 36.00
  C 140.97 36.00 140.94 36.06 141.02 36.18
  Z"
/>
<path fill="#000000" d="
  M 303.05 255.49
  C 264.24 195.94 221.39 130.22 174.51 58.31
  C 173.22 56.33 173.90 53.57 176.00 52.56
  C 176.83 52.16 177.80 51.96 178.91 51.96
  C 188.67 52.00 197.84 52.01 206.42 51.98
  C 207.81 51.97 209.12 52.64 209.94 53.78
  L 352.83 253.92
  C 353.51 254.87 353.55 256.13 352.93 257.12
  C 351.52 259.40 350.01 261.68 348.42 263.95
  C 304.17 327.23 258.92 388.96 213.84 451.84
  C 212.39 453.87 210.93 455.99 209.48 458.20
  C 208.75 459.32 207.50 460.00 206.16 460.00
  C 197.05 459.99 187.71 460.00 178.14 460.01
  C 174.45 460.01 172.62 456.54 174.62 453.47
  C 217.78 387.25 260.59 321.57 303.05 256.44
  C 303.26 256.13 303.26 255.81 303.05 255.49
  Z"
/>
</svg>
