<svg xmlns="http://www.w3.org/2000/svg" viewBox="0 0 400 300" data-imageid="instagram-post-flatline" imageName="Instagram post" class="illustrations_image" style="width: 186px;"><g id="_535_instagram_post_flatline" data-name="#535_instagram_post_flatline"><rect x="118.07" y="34.7" width="163.87" height="230.6" fill="#fff"/><path d="M281.93,34.7V265.3H118.07V34.7H281.93m0-1H118.07a1,1,0,0,0-1,1V265.3a1,1,0,0,0,1,1H281.93a1,1,0,0,0,1-1V34.7a1,1,0,0,0-1-1Z" fill="#231f20"/><path d="M138.29,208.58c.09-.13.16-.25.25-.36a5,5,0,0,1,2.14-1.78,4.51,4.51,0,0,1,5,1,4.25,4.25,0,0,1,1.17,2.42,7.07,7.07,0,0,1,0,1.78,6.46,6.46,0,0,1-.36,1.68,6.84,6.84,0,0,1-1.41,2.31,24.52,24.52,0,0,1-2,1.94l-3.65,3.2c-.35.31-.7.65-1,1l-.07.06-.25-.24c-1.18-1.11-2.4-2.18-3.62-3.24-.8-.69-1.6-1.38-2.35-2.13a8.86,8.86,0,0,1-1.43-1.79,5.94,5.94,0,0,1-.81-2.28,9,9,0,0,1-.11-1.8,4.28,4.28,0,0,1,2.91-3.95,4.49,4.49,0,0,1,4.81,1.15,5.41,5.41,0,0,1,.81,1Z" fill="#9faee1" class="target-color"/><path d="M168.52,222.21a.5.5,0,0,1-.26-.08l-2.92-1.76a9.4,9.4,0,0,1-3.33.56c-4.88,0-8.85-3.43-8.84-7.64a7.1,7.1,0,0,1,2.62-5.43,9.59,9.59,0,0,1,6.22-2.21h0a9.55,9.55,0,0,1,6.23,2.22,7.1,7.1,0,0,1,2.62,5.43A7,7,0,0,1,169,218v3.75a.49.49,0,0,1-.26.43A.51.51,0,0,1,168.52,222.21Zm-3.13-2.89a.48.48,0,0,1,.26.07l2.37,1.43v-3a.52.52,0,0,1,.14-.35,6,6,0,0,0,1.71-4.12,6.14,6.14,0,0,0-2.27-4.67,8.53,8.53,0,0,0-5.58-2h0a8.57,8.57,0,0,0-5.57,2,6.14,6.14,0,0,0-2.27,4.67c0,3.66,3.51,6.64,7.84,6.64h0a8.84,8.84,0,0,0,3.19-.58Z" fill="#d1d3d4"/><path d="M185.07,221.41H185a.49.49,0,0,1-.41-.4l-1.14-6.27-7-3.61a.48.48,0,0,1-.26-.5.5.5,0,0,1,.38-.43l15.87-3.7a.51.51,0,0,1,.51.19.48.48,0,0,1,0,.54l-7.51,13.92A.5.5,0,0,1,185.07,221.41Zm-6.92-10.55,6,3.09a.52.52,0,0,1,.26.36l.93,5.11,6.31-11.7Z" fill="#d1d3d4"/><path d="M183.89,214.89a.5.5,0,0,1-.33-.88l8.7-7.41a.5.5,0,0,1,.65.76l-8.7,7.42A.48.48,0,0,1,183.89,214.89Z" fill="#d1d3d4"/><path d="M272.18,221.3a.5.5,0,0,1-.34-.13l-5.23-4.77-6.11,4.8a.51.51,0,0,1-.53.05.5.5,0,0,1-.28-.45V207a.5.5,0,0,1,.5-.5h12a.5.5,0,0,1,.5.5V220.8a.51.51,0,0,1-.3.46A.45.45,0,0,1,272.18,221.3Zm-11.49-13.78v12.26l5.64-4.43a.49.49,0,0,1,.64,0l4.71,4.29V207.52Z" fill="#d1d3d4"/><text transform="translate(129.7 237.33)" font-size="12" fill="#d1d3d4" font-family="MyriadPro-Regular, Myriad Pro">999 Likes</text><path d="M260.19,248.06h-130a.5.5,0,0,1,0-1h130a.5.5,0,0,1,0,1Z" fill="#d1d3d4"/><path d="M239.08,254.07H130.17a.5.5,0,0,1-.5-.5.5.5,0,0,1,.5-.5H239.08a.5.5,0,0,1,.5.5A.51.51,0,0,1,239.08,254.07Z" fill="#d1d3d4"/><rect x="118.07" y="57.51" width="163.87" height="142.8" fill="#fff"/><path d="M281.93,57.51v142.8H118.07V57.51H281.93m0-1H118.07a1,1,0,0,0-1,1v142.8a1,1,0,0,0,1,1H281.93a1,1,0,0,0,1-1V57.51a1,1,0,0,0-1-1Z" fill="#231f20"/><path d="M134.68,171a.5.5,0,0,1-.5-.5l-.1-82a.5.5,0,0,1,.5-.5h0a.5.5,0,0,1,.5.5l.1,82a.5.5,0,0,1-.5.5Z" fill="#d1d3d4"/><path d="M256.31,185.09l-.16,0a.49.49,0,0,1-.32-.6c.24-1.35,1.91-36.27,2.77-55.05h-6.32a.51.51,0,0,1-.48-.34.49.49,0,0,1,.17-.55l24.77-19.58a.52.52,0,0,1,.71.08.51.51,0,0,1-.09.71l-23.64,18.68h5.41a.49.49,0,0,1,.36.15.57.57,0,0,1,.14.37c-.43,9.17-2.55,54.95-2.84,55.82A.5.5,0,0,1,256.31,185.09Z" fill="#d1d3d4"/><path d="M150.35,172.65a.51.51,0,0,1-.5-.49L148.4,89.93,134.55,89a.5.5,0,0,1-.47-.51l.37-20.38L119,67a.5.5,0,0,1,.07-1L135,67.15a.5.5,0,0,1,.47.5L135.09,88l13.84.94a.49.49,0,0,1,.46.49l1.46,82.68a.49.49,0,0,1-.49.51Z" fill="#d1d3d4"/><path d="M277.05,194.46h-.12c-.47-.12-46.64-12.27-70.14-19s-79.95,3.2-80.52,3.3a.48.48,0,0,1-.57-.4.5.5,0,0,1,.4-.58c.57-.1,57.36-10,81-3.28s69.66,18.83,70.12,18.95a.5.5,0,0,1-.13,1Z" fill="#d1d3d4"/><circle cx="133.36" cy="45.78" r="6.48" fill="#d1d3d4"/><path d="M190.31,43H144.89a.5.5,0,0,1-.5-.5.5.5,0,0,1,.5-.5h45.42a.5.5,0,0,1,.5.5A.5.5,0,0,1,190.31,43Z" fill="#d1d3d4"/><path d="M170.17,49.51H144.26a.5.5,0,0,1-.5-.5.51.51,0,0,1,.5-.5h25.91a.51.51,0,0,1,.5.5A.5.5,0,0,1,170.17,49.51Z" fill="#d1d3d4"/><circle cx="261.92" cy="45.5" r="1.15" fill="#d1d3d4"/><circle cx="266.78" cy="45.5" r="1.15" fill="#d1d3d4"/><circle cx="271.63" cy="45.5" r="1.15" fill="#d1d3d4"/><polygon points="182.72 124.46 137.19 129.69 126.19 158.77 185.04 160.75 182.72 124.46" fill="#9faee1" class="target-color"/><polygon points="229.45 123.82 281.93 143.67 281.93 180.83 222.62 162.63 229.45 123.82" fill="#9faee1" class="target-color"/><path d="M245.42,200.31c-1.28-24.39,1.64-44.36-12.75-73.27-4.6-9.24-26-2.69-36.12-1.68-4,.4-18.71,1.74-22.46,3.42-9.13,4.1-6.58,47.17-5,71.53Z" fill="#9faee1" class="target-color"/><path d="M194.23,130.26s2.41,20.11,13.24,17.52,5.68-20.65,5.68-20.65Z" fill="#231f20"/><path d="M205.6,148.51a7.35,7.35,0,0,1-4.31-1.39c-6-4.16-7.5-16.29-7.56-16.8a.49.49,0,0,1,.42-.55l18.92-3.14a.5.5,0,0,1,.56.36c.13.45,3.09,11-.55,17.24a8.39,8.39,0,0,1-5.49,4A8.65,8.65,0,0,1,205.6,148.51Zm-10.81-17.84c.35,2.28,2.1,12.17,7.07,15.64a6.58,6.58,0,0,0,5.5,1,7.37,7.37,0,0,0,4.86-3.56c3-5.17,1.07-14,.56-16Z" fill="#231f20"/><path d="M233.68,117.78a13.17,13.17,0,0,0,1.46-3.12A12.93,12.93,0,0,0,233.07,103c-2.66-3.4-6.73-5.15-10.06-7.76-3.88-3-6.23-7.74-9.27-11.56-1.67-2.1-3.83-4.89-6.48-5.76a49.34,49.34,0,0,0-10-2.27c-5.47-.55-10,1.31-14.4,4.38a11.2,11.2,0,0,0-2.6,2.24,3.74,3.74,0,0,0-.76,3.23c-1.9-.25-3.35,1.66-4.05,3.44-2.57,6.62-1.25,12.53-.12,19.23a111,111,0,0,0,3.69,16c1.12,3.39,2.46,7.94,6.32,9.17,1.1.35-.44-.78.67-1.1,3.79-1.06,7.86-2,11.4-3.78,3.32-1.62,5.86-4.3,9.05-6,4.3-2.3,9,0,13.35.72C225.36,124,230.76,122.27,233.68,117.78Z" fill="#fff"/><path d="M185.68,133.88a1.7,1.7,0,0,1-.46-.09c-3.95-1.26-5.37-5.6-6.51-9.08l-.13-.41a111.1,111.1,0,0,1-3.72-16.1l-.25-1.51c-1-6-2-11.74.41-18,.7-1.79,2.06-3.62,3.9-3.77a4.51,4.51,0,0,1,1-3,11.6,11.6,0,0,1,2.71-2.35c5.15-3.6,9.7-5,14.74-4.46a49.15,49.15,0,0,1,10.07,2.28c2.72.89,4.86,3.59,6.58,5.75l.14.18c1,1.26,1.94,2.63,2.84,4,1.86,2.71,3.79,5.52,6.35,7.53,1.12.88,2.36,1.68,3.56,2.45a25.35,25.35,0,0,1,6.58,5.39,13.37,13.37,0,0,1,2.16,12.17,13.59,13.59,0,0,1-1.53,3.24h0c-2.88,4.44-8.23,6.53-14.32,5.59-1.16-.18-2.35-.48-3.51-.77-3.2-.8-6.52-1.62-9.53,0a34.57,34.57,0,0,0-4.17,2.81,30.22,30.22,0,0,1-4.9,3.21,53.81,53.81,0,0,1-9.67,3.31l-1.81.51-.09,0s.08.09.1.15a.73.73,0,0,1-.05.81A.61.61,0,0,1,185.68,133.88Zm-6.49-47.95c-1.48,0-2.66,1.66-3.24,3.15-2.33,6-1.42,11.29-.36,17.44l.26,1.51a109.51,109.51,0,0,0,3.68,16l.13.41c1,3.13,2.29,7,5.46,8.29a.75.75,0,0,1,.09-.43,1.06,1.06,0,0,1,.7-.53l1.81-.5a54,54,0,0,0,9.5-3.25,30.26,30.26,0,0,0,4.74-3.11,34.71,34.71,0,0,1,4.3-2.89c3.35-1.8,6.86-.92,10.25-.08,1.18.3,2.29.57,3.41.75,5.68.88,10.67-1,13.34-5.15h0a12.84,12.84,0,0,0,1.41-3,12.38,12.38,0,0,0-2-11.25,24.92,24.92,0,0,0-6.34-5.17c-1.22-.78-2.48-1.6-3.64-2.51-2.68-2.1-4.65-5-6.55-7.75-.9-1.3-1.82-2.66-2.8-3.89l-.14-.18c-1.64-2.06-3.68-4.62-6.11-5.42a49.16,49.16,0,0,0-9.86-2.24c-4.79-.48-9.13.84-14.07,4.29a10.66,10.66,0,0,0-2.48,2.14,3.22,3.22,0,0,0-.69,2.78.5.5,0,0,1-.54.64Zm54.49,31.85h0Z" fill="#231f20"/><path d="M208.34,88.5s6.09,8.26,6.59,15.77a10.76,10.76,0,0,1-5.51,10.41l3.73,12.45s2,6.34-6.13,7.7a14,14,0,0,1-12.79-4.57l-7.75-22.63s7.32-7.73,4.09-15.72C190.57,91.91,202.6,93.84,208.34,88.5Z" fill="#fff"/><path d="M204.67,135.53a14.77,14.77,0,0,1-10.83-5,.37.37,0,0,1-.08-.15L186,107.8a.5.5,0,0,1,.11-.51c.07-.07,7-7.6,4-15.19a.5.5,0,0,1,.07-.5.52.52,0,0,1,.48-.18c.11,0,11.86,1.83,17.35-3.29a.61.61,0,0,1,.39-.13.57.57,0,0,1,.36.2c.25.35,6.18,8.47,6.68,16A11.35,11.35,0,0,1,210,114.92L213.63,127a6.6,6.6,0,0,1-.64,5c-1.07,1.74-3.05,2.86-5.88,3.33A15.09,15.09,0,0,1,204.67,135.53Zm-10-5.52a13.63,13.63,0,0,0,12.27,4.33c2.53-.43,4.28-1.39,5.19-2.87a5.6,5.6,0,0,0,.54-4.2l-3.73-12.45a.5.5,0,0,1,.26-.59,10.17,10.17,0,0,0,5.23-9.93c-.41-6.3-4.93-13.25-6.18-15.06-5.12,4.27-14.14,3.61-16.93,3.28,2.35,7.22-3.1,13.91-4.27,15.23Z" fill="#231f20"/><path d="M186.48,103.5s-3.07-7.71-1-14c2.46-7.47,10.5-13.79,22.7-11.25,0,0-4.72-3.33-9.26-2.74s-11.16-.36-16.65,9.87S186.48,103.5,186.48,103.5Z" fill="#231f20"/><path d="M186.48,104a.51.51,0,0,1-.31-.11c-.1-.09-10-8.26-4.35-18.74,4.9-9.13,10.83-9.61,15.16-10,.65,0,1.28-.1,1.87-.18,4.67-.6,9.41,2.69,9.61,2.83a.5.5,0,0,1-.39.9c-12-2.49-19.75,3.69-22.12,10.92-2,6,1,13.58,1,13.65a.52.52,0,0,1-.17.59A.54.54,0,0,1,186.48,104ZM200,75.94a8.89,8.89,0,0,0-1,.06c-.61.08-1.25.13-1.92.19-4.33.35-9.72.78-14.36,9.43a12.48,12.48,0,0,0,0,12.39,18.29,18.29,0,0,0,2.62,3.69c-.79-2.74-1.84-7.86-.36-12.35,2.32-7.08,9.48-13.2,20.48-12A13.36,13.36,0,0,0,200,75.94Z" fill="#231f20"/><path d="M190.31,104.73s-6.44-7.49-9.13-.74,5.41,10.83,9.09,9.16" fill="#fff"/><path d="M188.34,114a9.06,9.06,0,0,1-6-2.51,6.68,6.68,0,0,1-1.62-7.71c.73-1.82,1.79-2.86,3.17-3.09,3.15-.52,6.66,3.51,6.81,3.68a.5.5,0,1,1-.76.66s-3.29-3.78-5.88-3.35c-1,.17-1.82,1-2.41,2.47A5.74,5.74,0,0,0,183,110.8c2,1.9,5.15,2.75,7,1.9a.49.49,0,0,1,.66.25.51.51,0,0,1-.25.66A5.31,5.31,0,0,1,188.34,114Z" fill="#231f20"/><path d="M203.3,105.7a.5.5,0,0,1,0-1c.72,0,2.8-.27,3.63-1.08.1-.58-2.45-3.06-5.46-5.27a.51.51,0,0,1-.11-.7.5.5,0,0,1,.7-.1c1,.7,5.74,4.29,5.86,6a1,1,0,0,1-.29.78c-1.29,1.25-4.18,1.35-4.3,1.36Z" fill="#231f20"/><path d="M209.42,114.68s-6.4,2.83-10.51,3c0,0,7.11,8.55,13.42,6.61Z" fill="#231f20"/><path d="M210.36,125.08c-5.88,0-11.57-6.76-11.83-7.08a.49.49,0,0,1-.08-.52.5.5,0,0,1,.44-.3c4-.16,10.26-2.93,10.33-3a.53.53,0,0,1,.41,0,.49.49,0,0,1,.27.31l2.9,9.6a.49.49,0,0,1-.33.62A7,7,0,0,1,210.36,125.08Zm-10.4-7c1.81,1.92,7,6.87,11.74,5.84l-2.6-8.57A40.1,40.1,0,0,1,200,118.09Z" fill="#231f20"/><ellipse cx="196.85" cy="99.73" rx="1.02" ry="1.79" transform="translate(-22.15 72.64) rotate(-19.82)" fill="#231f20"/><path d="M177.7,119.64c1.93,7.4,5.74,20.93,16.15,13.83a10.23,10.23,0,0,0,4.22-6.38c.94-4.69-6.93-8.42-10.59-10.06" fill="#fff"/><path d="M188.42,136a6.35,6.35,0,0,1-2.25-.4c-5.37-2-7.7-11-8.95-15.79a.5.5,0,0,1,1-.25c1.12,4.31,3.45,13.27,8.33,15.1,2,.77,4.4.24,7-1.57a9.67,9.67,0,0,0,4-6.06c.9-4.48-7.54-8.26-10.31-9.5a.51.51,0,0,1-.25-.67.5.5,0,0,1,.66-.25c5.12,2.3,11.82,5.9,10.88,10.62a10.68,10.68,0,0,1-4.43,6.69A10.27,10.27,0,0,1,188.42,136Z" fill="#231f20"/><path d="M203.7,113a9,9,0,0,1-1.65-.16c-5.43-1-5.07-5.31-5.07-5.36a.5.5,0,0,1,.5-.45h0l11.57,0a.51.51,0,0,1,.36.14.54.54,0,0,1,.14.36,5.55,5.55,0,0,1-2,4.15A5.93,5.93,0,0,1,203.7,113ZM198,108c.09,1,.69,3.18,4.25,3.83a5.55,5.55,0,0,0,4.68-.91,4.62,4.62,0,0,0,1.6-2.89Z" fill="#231f20"/><path d="M204.82,98.1a.41.41,0,0,1-.16,0,.49.49,0,0,1-.31-.63A4.41,4.41,0,0,1,206.48,95a3.32,3.32,0,0,1,2.75.11.5.5,0,0,1-.4.92,2.36,2.36,0,0,0-2-.11,3.6,3.6,0,0,0-1.59,1.86A.49.49,0,0,1,204.82,98.1Z" fill="#231f20"/><path d="M134.27,158.42c-8.29,5.28-18.65-4.84-14.18-18S155.88,95.7,155.88,95.7s-2.62-7.44-.26-10.24,6.91-1.25,6.91-1.25,2.71-12,5.11-11.14-1.59,12.42-1.59,12.42,6.42-12.71,8-10.27-4.76,11.89-4.76,11.89,3.85-.5,1.49,5a18,18,0,0,1-7.18,8S142.56,153.13,134.27,158.42Z" fill="#fff"/><path d="M129.54,160.35a9.57,9.57,0,0,1-5.91-2.15c-4-3.12-6.75-9.87-4-17.94,4.31-12.69,32.68-41.64,35.69-44.69-.48-1.47-2.34-7.75-.07-10.44,2.08-2.46,5.59-1.88,6.93-1.55.52-2.21,2.44-9.72,4.54-10.87a1.3,1.3,0,0,1,1.1-.11c1.72.63,1.08,4.75.15,8.34,1.77-3,4.07-6.45,5.52-6.53a1.1,1.1,0,0,1,1,.53c1.52,2.32-2.62,9.14-4.29,11.72a2.31,2.31,0,0,1,1.38.84c.73,1,.62,2.58-.33,4.78A18.2,18.2,0,0,1,164,100.5c-1,3-7.4,18.06-11.45,27-8.4,18.54-14.45,29.08-18,31.33h0A9.24,9.24,0,0,1,129.54,160.35Zm30.21-76.07a4.75,4.75,0,0,0-3.75,1.5c-1.78,2.12-.35,7.76.35,9.75a.5.5,0,0,1-.11.52c-.31.32-31.3,31.63-35.67,44.53-2.59,7.6,0,13.93,3.68,16.83A8.16,8.16,0,0,0,134,158h0c8-5.12,28.95-57.53,29.15-58h0a.44.44,0,0,1,.23-.27,17.57,17.57,0,0,0,7-7.81c.77-1.79.93-3.13.45-3.77a1.73,1.73,0,0,0-1.42-.51.49.49,0,0,1-.49-.23.5.5,0,0,1,0-.54c2.39-3.55,5.8-9.76,4.76-11.34-.06-.09-.08-.08-.11-.08-1.19.07-4.51,5.29-7,10.3a.5.5,0,0,1-.64.24.51.51,0,0,1-.28-.62c1.85-5.35,3-11.36,1.88-11.79a.3.3,0,0,0-.27,0c-1.45.79-3.33,7-4.17,10.73a.51.51,0,0,1-.24.32.53.53,0,0,1-.41,0A9,9,0,0,0,159.75,84.28Z" fill="#231f20"/><path d="M160.32,94.77h-.08a.51.51,0,0,1-.42-.57,4,4,0,0,1,1.76-2.89,4.9,4.9,0,0,1,1.85-.69A12.89,12.89,0,0,1,161.17,89c-.56-.5-.74-1-.54-1.45.62-1.43,5.73-1.2,8.72-.93a.5.5,0,0,1-.09,1c-3.73-.34-7.31-.18-7.71.32a3,3,0,0,0,.29.31,10.27,10.27,0,0,0,4.21,2.37,7.45,7.45,0,0,1,.79.16.5.5,0,0,1-.16,1,4.66,4.66,0,0,1-.83-.16,5.72,5.72,0,0,0-3.73.55,3,3,0,0,0-1.31,2.21A.5.5,0,0,1,160.32,94.77Z" fill="#231f20"/><line x1="166.12" y1="142.61" x2="168.69" y2="193.96" fill="#fff"/><path d="M168.69,194.46a.49.49,0,0,1-.5-.47l-2.57-51.36a.49.49,0,0,1,.47-.52.49.49,0,0,1,.53.47l2.57,51.36a.5.5,0,0,1-.48.52Z" fill="#231f20"/><line x1="233.51" y1="166" x2="273.69" y2="178.3" fill="#fff"/><path d="M273.69,178.8l-.15,0-40.18-12.3a.5.5,0,0,1-.33-.62.49.49,0,0,1,.62-.33l40.18,12.29a.5.5,0,0,1,.34.63A.51.51,0,0,1,273.69,178.8Z" fill="#231f20"/><path d="M245.36,78.14a10.32,10.32,0,0,1-5-1.27c-4.19-2.38-6.24-6.87-7.23-10.4-2.53.66-5.34,1.33-8.11.81s-5.87-2.77-6-6a.51.51,0,0,1,.47-.53.47.47,0,0,1,.53.47c.14,2.67,2.8,4.6,5.22,5.05,2.73.52,5.61-.24,8.16-.91a.48.48,0,0,1,.37.05.53.53,0,0,1,.24.31c.89,3.4,2.8,7.94,6.88,10.26,3.4,1.93,8.74,1.57,11-2a.51.51,0,0,1,.37-.23.49.49,0,0,1,.41.14c1.28,1.26,3.54.88,4.91-.2a12.36,12.36,0,0,0,3.17-4.84c.51-1.13,1-2.31.58-3.3a.5.5,0,0,1,.1-.53.48.48,0,0,1,.51-.13,26.46,26.46,0,0,0,7.79,1.62h0a8.48,8.48,0,0,0,6.83-3,.5.5,0,1,1,.8.59,9.47,9.47,0,0,1-7.62,3.39h-.05a24.42,24.42,0,0,1-7.26-1.41,6.78,6.78,0,0,1-.81,3.16,13.17,13.17,0,0,1-3.46,5.22c-1.59,1.25-4.07,1.71-5.78.5A8.43,8.43,0,0,1,245.36,78.14Z" fill="#d1d3d4"/><rect x="122.57" y="81.91" width="3.62" height="7.56" fill="#d1d3d4"/><rect x="126.89" y="97.79" width="3.62" height="7.56" fill="#d1d3d4"/><path d="M275.38,76c-13,0-23.51,9.66-23.51,21.58a19.91,19.91,0,0,0,1.93,8.55c-2.84,1.79-7.42,3.84-11.72,2.09,0,0,3.95,5.12,14.62,2.45a24.22,24.22,0,0,0,18.68,8.49c13,0,23.5-9.66,23.5-21.58S288.36,76,275.38,76Z" fill="#fff"/><path d="M275.38,119.68a24.63,24.63,0,0,1-18.86-8.43c-10.64,2.55-14.66-2.49-14.83-2.71a.5.5,0,0,1,.58-.76c3.86,1.57,8-.07,10.89-1.82a20.32,20.32,0,0,1-1.78-8.36c0-12.18,10.76-22.08,24-22.08s24,9.9,24,22.08S288.61,119.68,275.38,119.68Zm-18.68-9.49a.49.49,0,0,1,.38.18,23.64,23.64,0,0,0,18.3,8.31c12.68,0,23-9.46,23-21.08s-10.32-21.08-23-21.08-23,9.45-23,21.08a19.38,19.38,0,0,0,1.87,8.34.5.5,0,0,1-.19.63c-2.56,1.62-6.16,3.24-9.83,2.75,2,1.19,5.94,2.49,12.35.89Z" fill="#231f20"/><path d="M276.28,91.39c.15-.16.29-.32.44-.47a7.48,7.48,0,0,1,3.5-2.06,6.5,6.5,0,0,1,3.16,0,6.33,6.33,0,0,1,4.89,6.32,11.61,11.61,0,0,1-.42,2.55,10.07,10.07,0,0,1-.92,2.35,10,10,0,0,1-2.58,3,33.21,33.21,0,0,1-3.35,2.31l-6,3.76c-.59.37-1.16.76-1.73,1.15l-.11.07-.31-.41c-1.43-1.88-2.93-3.7-4.44-5.51-1-1.19-2-2.36-2.88-3.62a13.91,13.91,0,0,1-1.65-2.91,9.18,9.18,0,0,1-.62-3.47,12.9,12.9,0,0,1,.27-2.63,6.24,6.24,0,0,1,5.11-5,6.54,6.54,0,0,1,6.65,2.79,7.47,7.47,0,0,1,.94,1.68A.48.48,0,0,0,276.28,91.39Z" fill="#d1d3d4"/></g></svg>